# xmcd
# Track frame offsets:
# 150
# 13690
# 33184
# 50958
# 67242
# 85078
# 97502
# 114403
# 128981
# 138372
# 157572
# 173644
# 187273
# 208974
# 221614
#
# Disc length: 3040 seconds
# Revision: 0
# Processed by: cddbd v1.5.2PL0 Copyright (c) Steve Scherf et al.
# Submitted via: VisiTrax 2.11.2.271 - For more info visit www.synapsa.com
#
DISCID=cf0bde0f
DTITLE=Jacksons Garden - Songs by Dylan and Divina
DYEAR=2010
DGENRE=Blues/Rock
TTITLE0=Jupiter Girl
TTITLE1=Queen Jane Approximately
TTITLE2=London Days
TTITLE3=Belle Isle
TTITLE4=River Of Love
TTITLE5=Catfish
TTITLE6=Ruby Heart
TTITLE7=Emotionally Yours
TTITLE8=Travellin' Blues
TTITLE9=Love Minus Zero
TTITLE10=Caravan Of Angels
TTITLE11=Forever Young
TTITLE12=When True Love's Gone By
TTITLE13=From A Buick 6
TTITLE14=Get Along Little Doggies
EXTD=
EXTT0=
EXTT1=
EXTT2=
EXTT3=
EXTT4=
EXTT5=
EXTT6=
EXTT7=
EXTT8=
EXTT9=
EXTT10=
EXTT11=
EXTT12=
EXTT13=
EXTT14=These songs includes compositions of both Bob Dylan and Eric Divina.
PLAYORDER=
